<svg xmlns="http://www.w3.org/2000/svg" viewBox="0 0 341.453 341.453" fill="#ffffff"><path fill="#fbe300" d="M197.919 129.684h-54.38v44.744s-78.331 129.29-78.546 129.659c.425.015 210.109.026 210.109.026.476 0 .922-.01 1.352-.026-.21-.374-78.536-129.659-78.536-129.659v-44.744z"/><path fill="#535c60" d="M307.707 283.571l-72.448-119.567V29.302h14.863V0H90.547v29.302h15.647v134.697L33.746 283.571c-19.292 31.836-4.618 57.882 32.604 57.882h208.753c37.222 0 51.896-26.046 32.604-57.882zm-13.676 30.418c-1.597 2.842-7.516 6.154-18.929 6.154H66.35c-11.412 0-17.331-3.313-18.929-6.154-1.597-2.836-1.372-9.62 4.547-19.379l75.535-124.662V15.759h86.395v97.894h.046v56.294L289.48 294.61c5.918 9.764 6.149 16.543 4.551 19.379z"/></svg>